<?xml version="1.0" encoding="UTF-8" standalone="no"?>
<svg xmlns="http://www.w3.org/2000/svg" xmlns:xlink="http://www.w3.org/1999/xlink" viewBox="0 0 24 24" id="snowy" version="1.1">
    <g transform="" style=""><g xmlns="http://www.w3.org/2000/svg" id="cloud">
        <path style="fill:#BDBDBD" d="M 6,19                A 5,5 0 0,1 6,9                A 6,6 0 0,1 18.5,11                H 19                A 4,4 0 0,1 19,19                Z"/>
    </g></g>
    <g transform="translate(-4,-2)" style=""><g xmlns="http://www.w3.org/2000/svg" xmlns:xlink="http://www.w3.org/1999/xlink" id="snowflake" transform="rotate(10,12,18)">
        <path fill="#ffffff" id="snowflake_branch" d="M 11,14                A 1,1 0 0,1 13,14                V 22                A 1,1 0 0,1 11,22                Z"/>
        <use transform="rotate(60,12,18)" xlink:href="#snowflake_branch"/>
        <use transform="rotate(120,12,18)" xlink:href="#snowflake_branch"/>
    </g></g>
    <g transform="translate(7,6) scale(0.8)" style=""><g xmlns="http://www.w3.org/2000/svg" xmlns:xlink="http://www.w3.org/1999/xlink" id="snowflake" transform="rotate(10,12,18)">
        <path fill="#ffffff" id="snowflake_branch" d="M 11,14                A 1,1 0 0,1 13,14                V 22                A 1,1 0 0,1 11,22                Z"/>
        <use transform="rotate(60,12,18)" xlink:href="#snowflake_branch"/>
        <use transform="rotate(120,12,18)" xlink:href="#snowflake_branch"/>
    </g></g>
</svg>
