<?xml version="1.0" encoding="UTF-8" standalone="no"?>
<svg xmlns="http://www.w3.org/2000/svg" xmlns:xlink="http://www.w3.org/1999/xlink" viewBox="0 0 24 24" version="1.1">
    <g id="windy">
        <path fill="#BDBDBD" id="big-gust" d="M 4,8                h 8                q 2,0 2,-2                q 0,-2, -2,-2                q -1,0 -1.8,0.7                q -0.7,0.4 -1,-0.1                q -0.7,-1.1 -0.1,-1.5                q 1.2,-1.1 2.9,-1.1                q 4,0 4,4                q 0,4 -4,4                h -8                q -1,0 -1,-1                q 0,-1 1,-1                Z"/>

        <path fill="#BDBDBD" id="small-gust" d="M 5,12                h 14                q 1,0 1,-1                q 0,-1, -1,-1                q -0.4,0 -1.1,0.5                q -0.7,0.3 -1,-0.1                q -0.5,-1.1 0.1,-1.6                q 1.2,-0.8 2.2,-0.8                q 3,0 3,3                q 0,3 -3,3                h -14                q -1,0 -1,-1                q 0,-1 1,-1                Z"/>

        <use transform="translate(-1,30) scale(1,-1)" xlink:href="#small-gust"/>
    </g>
</svg>
