<?xml version="1.0" encoding="UTF-8" standalone="no"?>
<svg xmlns="http://www.w3.org/2000/svg" xmlns:xlink="http://www.w3.org/1999/xlink" viewBox="0 0 24 24" id="partly-rainy" version="1.1">
    <g transform="scale(0.75)                    translate(2,0)">
        <g transform="" style=""><g xmlns="http://www.w3.org/2000/svg" xmlns:xlink="http://www.w3.org/1999/xlink" id="night">
        <polygon id="star" style="fill:#FFF9C4" points="13.5,1                     14.5,4                     17.75,4                     15.25,6                     16,9                     13.5,7.25                     11,9                     11.75,6                     9.25,4                     12.5,4"/>

        <use transform="translate(9,8) scale(0.75)" xlink:href="#star"/>

        <path style="fill:#EEEEEE" d="M 6,4                A 10,10 0 0,0 20,18                Q 20.8,16.5 19,16                A 15,15 0 0,1 8,5                Q 7.5,3 6,4                Z"/>
    </g></g>
    </g>
    <g transform="scale(0.75)                    translate(4,8)">
        <g transform="" style=""><g xmlns="http://www.w3.org/2000/svg" id="lightning">
        <g transform="" style=""><g xmlns="http://www.w3.org/2000/svg" id="cloud">
        <path style="fill:#BDBDBD" d="M 6,19                A 5,5 0 0,1 6,9                A 6,6 0 0,1 18.5,11                H 19                A 4,4 0 0,1 19,19                Z"/>
    </g></g>
        <g transform="" style=""><g xmlns="http://www.w3.org/2000/svg" id="lightning">
        <path style="fill:#FFC107" d="M 12,12                H 15                L 13,16                H 15                L 11,23                L 12,18                H 10                Z"/>
    </g></g>
    </g></g>
    </g>
</svg>
