<?xml version="1.0" encoding="UTF-8" standalone="no"?>
<svg xmlns="http://www.w3.org/2000/svg" xmlns:xlink="http://www.w3.org/1999/xlink" viewBox="0 0 24 24" id="hazy">
    <g>
        <g id="sun">
            <path d="M 7,12                    A 5,5 0 0,1 17,12                    Z" style="fill:#ffd54f"/>

            <path d="M 12,2                L 14.5,5.5                Q 12,4.5 9.5,5.5                Z" id="sunbeam" fill="#ffd54f"/>

            <use transform="rotate(60,12,12)" xlink:href="#sunbeam"/>
            <use transform="rotate(300,12,12)" xlink:href="#sunbeam"/>
        </g>
        <g transform="" style="fill:#FFCC80"><g xmlns="http://www.w3.org/2000/svg" id="haze">
        <circle cx="3" cy="15" r="1"/>
        <rect x="3" y="14" width="10" height="2"/>
        <circle cx="13" cy="15" r="1"/>

        <circle cx="17" cy="15" r="1"/>
        <rect x="17" y="14" width="4" height="2"/>
        <circle cx="21" cy="15" r="1"/>

        <circle cx="4" cy="19" r="1"/>
        <rect x="4" y="18" width="3" height="2"/>
        <circle cx="7" cy="19" r="1"/>

        <circle cx="11" cy="19" r="1"/>
        <rect x="11" y="18" width="9" height="2"/>
        <circle cx="20" cy="19" r="1"/>
    </g></g>
    </g>
</svg>
