<?xml version="1.0" encoding="UTF-8" standalone="no"?>
<svg xmlns="http://www.w3.org/2000/svg" xmlns:xlink="http://www.w3.org/1999/xlink" viewBox="0 0 24 24" id="fog">
    <path style="fill:#BDBDBD" d="M 1.5,13            A 5,5 0 0,1 6,9            A 6,6 0 0,1 18.5,11            H 19            A 4,4 0 0,1 22.5,13            Z"/>
    <g transform="" style="fill:#BDBDBD"><g xmlns="http://www.w3.org/2000/svg" id="haze">
        <circle cx="3" cy="15" r="1"/>
        <rect x="3" y="14" width="10" height="2"/>
        <circle cx="13" cy="15" r="1"/>

        <circle cx="17" cy="15" r="1"/>
        <rect x="17" y="14" width="4" height="2"/>
        <circle cx="21" cy="15" r="1"/>

        <circle cx="4" cy="19" r="1"/>
        <rect x="4" y="18" width="3" height="2"/>
        <circle cx="7" cy="19" r="1"/>

        <circle cx="11" cy="19" r="1"/>
        <rect x="11" y="18" width="9" height="2"/>
        <circle cx="20" cy="19" r="1"/>
    </g></g>
</svg>
