<?xml version="1.0" encoding="UTF-8" standalone="no"?>
<svg
   xmlns:dc="http://purl.org/dc/elements/1.1/"
   xmlns:cc="http://creativecommons.org/ns#"
   xmlns:rdf="http://www.w3.org/1999/02/22-rdf-syntax-ns#"
   xmlns:svg="http://www.w3.org/2000/svg"
   xmlns="http://www.w3.org/2000/svg"
   xmlns:sodipodi="http://sodipodi.sourceforge.net/DTD/sodipodi-0.dtd"
   xmlns:inkscape="http://www.inkscape.org/namespaces/inkscape"
   inkscape:version="1.0beta2 (2b71d25, 2019-12-03)"
   sodipodi:docname="weather-partly-rainy.svg"
   viewBox="0 0 24 24"
   height="24"
   width="24"
   id="mdi-weather-partly-cloudy"
   version="1.1">
  <metadata
     id="metadata53">
    <rdf:RDF>
      <cc:Work
         rdf:about="">
        <dc:format>image/svg+xml</dc:format>
        <dc:type
           rdf:resource="http://purl.org/dc/dcmitype/StillImage" />
      </cc:Work>
    </rdf:RDF>
  </metadata>
  <defs
     id="defs51" />
  <sodipodi:namedview
     inkscape:current-layer="layer2"
     inkscape:window-maximized="0"
     inkscape:window-y="183"
     inkscape:window-x="2560"
     inkscape:cy="12"
     inkscape:cx="12"
     inkscape:zoom="29"
     showgrid="false"
     id="namedview49"
     inkscape:window-height="1395"
     inkscape:window-width="1280"
     inkscape:pageshadow="2"
     inkscape:pageopacity="0"
     guidetolerance="10"
     gridtolerance="10"
     objecttolerance="10"
     borderopacity="1"
     inkscape:document-rotation="0"
     bordercolor="#666666"
     pagecolor="#ffffff" />
  <g
     inkscape:groupmode="layer"
     id="g76"
     inkscape:label="Sun"
     style="display:inline">
    <path
       style="fill:#ffd54f;fill-opacity:1;stroke-width:0.85"
       sodipodi:nodetypes="cccccccccccccccccccc"
       inkscape:connector-curvature="0"
       d="m 13.522862,4.1055 c -0.4675,-0.204 -0.935,-0.3485 -1.4195,-0.442 l 2.1165,-1.105 0.765,2.4565 c -0.4335,-0.357 -0.918,-0.663 -1.462,-0.9095 m -6.3409999,0.68 c -0.4165,0.2975 -0.782,0.6375 -1.0965,1.0115 l 0.0935,-2.3885 2.516,0.578 c -0.527,0.1785 -1.037,0.4505 -1.513,0.799 M 17.305362,9.265 c -0.0765,-0.5015 -0.187,-0.986 -0.3485,-1.4535 l 2.023,1.275 -1.7425,1.8955 c 0.0935,-0.5525 0.1105,-1.1305 0.068,-1.717 M 4.5893621,10.6165 c 0.0595,0.51 0.17,0.9945 0.3315,1.445 l -2.0145,-1.275 1.734,-1.887 c -0.085,0.5525 -0.1105,1.1305 -0.051,1.717"
       id="path74" />
    <ellipse
       ry="4.6524405"
       rx="4.4285264"
       cy="9.9183111"
       cx="10.862413"
       id="path974"
       style="fill:#ffd54f;fill-opacity:1;stroke-width:0.85" />
  </g>
  <g
     style="display:inline"
     inkscape:label="Cloud"
     id="layer1"
     inkscape:groupmode="layer">
    <path
       style="fill:#bdbdbd;fill-opacity:1;stroke-width:0.85"
       sodipodi:nodetypes="sssscsssssscs"
       inkscape:connector-curvature="0"
       d="m 8.3038621,11.322 c 0.65888,-0.840674 2.3374999,-1.8105 3.9014999,-1.8105 0.595,0 1.231295,-0.0049 2.516,0.765 1.785642,1.070106 2.584,2.7965 2.584,4.335 v 0.1445 c 0.2635,-0.0935 0.5525,-0.1445 0.85,-0.1445 1.408326,0 2.55,1.141674 2.55,2.55 0,1.408326 -1.141674,2.55 -2.55,2.55 H 7.1053621 c -1.8777682,0 -3.4,-1.522232 -3.4,-3.4 0,-1.877768 1.5222318,-3.4 3.4,-3.4 h 0.2295 c 0.323,-0.529833 0.6213527,-1.145932 0.969,-1.5895 z"
       id="path46" />
  </g>
  <g
     inkscape:label="Rain"
     id="layer2"
     inkscape:groupmode="layer">
    <path
       style="fill:#64b5f6;fill-opacity:1;stroke-width:0.85"
       sodipodi:nodetypes="csssc"
       inkscape:connector-curvature="0"
       d="m 12.205362,15.1385 c 0,0 -2.5499999,2.873 -2.5499999,4.573 0,1.408326 1.1416739,2.55 2.5499999,2.55 1.408326,0 2.55,-1.141674 2.55,-2.55 0,-1.7 -2.55,-4.573 -2.55,-4.573 z"
       id="path1550" />
  </g>
</svg>
